<?xml version="1.0" encoding="utf-8"?>
<!-- Generator: Adobe Illustrator 26.0.0, SVG Export Plug-In . SVG Version: 6.00 Build 0)  -->
<svg version="1.1" id="Capa_1" xmlns="http://www.w3.org/2000/svg" xmlns:xlink="http://www.w3.org/1999/xlink" x="0px" y="0px"
	 viewBox="0 0 512 512" style="enable-background:new 0 0 512 512;" xml:space="preserve">
<style type="text/css">
	.st0{fill:#020002;}
</style>
<path class="st0" d="M329.2,56L329.2,56L55.75,56c-4.69,0-7.04,2.35-7.04,7.04v38.73c0,43.42,30.51,66.89,85.67,66.89h195.99
	c21.12,0,37.55,16.43,37.55,37.55s-16.43,37.55-37.55,37.55H109.74c-3.52,0-5.87,2.35-7.04,4.69L52.23,453.84
	c0,2.35,0,4.69,1.17,5.87c1.17,1.17,3.52,2.35,5.87,2.35h69.24c25.82,0,38.73-21.12,41.08-32.86l19.95-73.94H329.2
	c82.15,0,150.22-66.89,150.22-150.22C479.42,122.89,412.52,56,329.2,56z"/>
</svg>
